# xmcd CD database file generated by Grip 3.3.1
#
# Track frame offsets:
#       150
#       5991
#       21636
#       38542
#       62694
#       79110
#       87299
#       101103
#       113577
#       126785
#       142950
#       162214
#
# Disc length: 2466 seconds
#
# Revision: 1
# Processed by: cddbd v1.5.2PL0 Copyright (c) Steve Scherf et al.
# Submitted via: Grip 3.3.1
#
DISCID=9809a00c
DTITLE=The Arrs - Heros Assassin
DYEAR=2009
DGENRE=Country
TTITLE0=L'empire, la femme, la mort
TTITLE1=Cannibale
TTITLE2=Nihil est in homine
TTITLE3=Heros Assassin
TTITLE4=Sacrifice
TTITLE5=Martyres
TTITLE6=Sombre Univers
TTITLE7=Vengeance
TTITLE8=L'emprise
TTITLE9=Seul contre tous
TTITLE10=Le ciel des uns est l'enfer des autres
TTITLE11=Ma misericorde
EXTD=
EXTT0=
EXTT1=
EXTT2=
EXTT3=
EXTT4=
EXTT5=
EXTT6=
EXTT7=
EXTT8=
EXTT9=
EXTT10=
EXTT11=
PLAYORDER=
